<?xml version="1.0" encoding="UTF-8" standalone="no"?>
<svg
   xmlns:dc="http://purl.org/dc/elements/1.1/"
   xmlns:cc="http://creativecommons.org/ns#"
   xmlns:rdf="http://www.w3.org/1999/02/22-rdf-syntax-ns#"
   xmlns:svg="http://www.w3.org/2000/svg"
   xmlns="http://www.w3.org/2000/svg"
   xmlns:xlink="http://www.w3.org/1999/xlink"
   xmlns:sodipodi="http://sodipodi.sourceforge.net/DTD/sodipodi-0.dtd"
   xmlns:inkscape="http://www.inkscape.org/namespaces/inkscape"
   width="192"
   height="192"
   id="svg20180"
   version="1.1"
   inkscape:version="0.48.4 r9939"
   sodipodi:docname="icon.svg"
   inkscape:export-filename="/home/ink/devel/lamptest/src/assets/icon-1024.png"
   inkscape:export-xdpi="480"
   inkscape:export-ydpi="480">
  <defs
     id="defs20750" />
  <g
     inkscape:groupmode="layer"
     id="layer16"
     inkscape:label="back"
     style="display:inline" />
  <path
     style="fill:#fee4a3;stroke:none"
     d="m 79.428076,14.755559 3.929359,3.92936 -3.929359,-3.92936 z"
     id="path20186"
     inkscape:connector-curvature="0" />
  <path
     style="fill:#fecb52;stroke:none"
     d="m 122.65103,14.755559 3.92935,3.92936 -3.92935,-3.92936 z"
     id="path20190"
     inkscape:connector-curvature="0" />
  <path
     style="fill:#fee3a2;stroke:none"
     d="m 67.639999,18.684919 3.929359,3.929358 -3.929359,-3.929358 z"
     id="path20192"
     inkscape:connector-curvature="0" />
  <path
     style="fill:#fecb52;stroke:none"
     d="m 55.851922,26.543637 3.929359,3.929358 -3.929359,-3.929358 z"
     id="path20198"
     inkscape:connector-curvature="0" />
  <path
     style="fill:#fecd59;stroke:none"
     d="m 87.286794,34.402355 3.929358,3.929358 -3.929358,-3.929358 z"
     id="path20208"
     inkscape:connector-curvature="0" />
  <path
     style="fill:#fecc55;stroke:none"
     d="m 71.569358,38.331713 3.929359,3.92936 -3.929359,-3.92936 z"
     id="path20216"
     inkscape:connector-curvature="0" />
  <path
     style="fill:#ffffff;stroke:none"
     d="m 43.747319,78.485872 c 14.278899,-8.998626 34.602722,-24.981686 43.22295,-39.29359 -25.451638,1.39335 -41.244517,13.069441 -43.22295,39.29359 z"
     id="path20218"
     inkscape:connector-curvature="0" />
  <path
     style="fill:#fece5d;stroke:none"
     d="m 91.216152,46.190431 3.929356,3.929359 -3.929356,-3.929359 z"
     id="path20224"
     inkscape:connector-curvature="0" />
  <path
     style="fill:#fee4a2;stroke:none"
     d="m 32.275768,50.11979 3.92936,3.929359 -3.92936,-3.929359 z"
     id="path20236"
     inkscape:connector-curvature="0" />
  <path
     style="fill:#fecb51;stroke:none"
     d="m 71.569358,54.049149 3.929359,3.929359 -3.929359,-3.929359 z"
     id="path20242"
     inkscape:connector-curvature="0" />
  <path
     style="fill:#fee4a4;stroke:none"
     d="m 28.346409,57.978508 3.929359,3.92936 -3.929359,-3.92936 z"
     id="path20248"
     inkscape:connector-curvature="0" />
  <path
     style="fill:#fecb50;stroke:none"
     d="m 63.71064,61.907868 3.929359,3.929358 -3.929359,-3.929358 z"
     id="path20250"
     inkscape:connector-curvature="0" />
  <path
     style="fill:#fecc54;stroke:none"
     d="m 47.993204,65.837226 3.929359,3.92936 -3.929359,-3.92936 z"
     id="path20254"
     inkscape:connector-curvature="0" />
  <path
     style="fill:#fecb53;stroke:none"
     d="m 24.41705,69.766586 3.929359,3.929358 -3.929359,-3.929358 z"
     id="path20268"
     inkscape:connector-curvature="0" />
  <path
     style="fill:#fee6a9;stroke:none"
     d="m 47.993204,69.766586 3.929359,3.929358 -3.929359,-3.929358 z"
     id="path20270"
     inkscape:connector-curvature="0" />
  <path
     style="fill:#c4c3c4;stroke:none"
     d="m 16.558333,112.98954 3.929358,3.92934 -3.929358,-3.92934 z"
     id="path20494"
     inkscape:connector-curvature="0" />
  <path
     style="fill:#cccbcc;stroke:none"
     d="m 12.628974,116.91888 3.929359,3.92937 -3.929359,-3.92937 z"
     id="path20504"
     inkscape:connector-curvature="0" />
  <path
     style="fill:#949394;stroke:none"
     d="m 8.6996149,124.77761 3.9293591,3.92936 -3.9293591,-3.92936 z"
     id="path20526"
     inkscape:connector-curvature="0" />
  <path
     style="fill:#bbbaba;stroke:none"
     d="m 12.628974,160.14184 3.929359,3.92936 -3.929359,-3.92936 z"
     id="path20644"
     inkscape:connector-curvature="0" />
  <path
     style="fill:#cd8f20;stroke:none"
     d="m 55.851922,160.14184 3.929359,3.92936 -3.929359,-3.92936 z"
     id="path20646"
     inkscape:connector-curvature="0" />
  <path
     style="fill:#acadac;stroke:none"
     d="m 16.558333,164.0712 3.929358,3.92936 -3.929358,-3.92936 z"
     id="path20658"
     inkscape:connector-curvature="0" />
  <path
     style="fill:#adaeaf;stroke:none"
     d="m 55.851922,168.00056 3.929359,3.92936 -3.929359,-3.92936 z"
     id="path20684"
     inkscape:connector-curvature="0" />
  <path
     style="fill:#fecb53;stroke:none"
     d="m 71.569358,168.00056 3.929359,3.92936 -3.929359,-3.92936 z"
     id="path20686"
     inkscape:connector-curvature="0" />
  <path
     style="fill:#cdcccd;stroke:none"
     d="m 47.993204,171.92992 3.929359,3.92935 -3.929359,-3.92935 z"
     id="path20734"
     inkscape:connector-curvature="0" />
  <path
     style="fill:#fee3a0;stroke:none"
     d="m 79.428076,171.92992 3.929359,3.92935 -3.929359,-3.92935 z"
     id="path20736"
     inkscape:connector-curvature="0" />
  <path
     style="fill:#fecb54;stroke:none"
     d="m 83.357435,171.92992 3.929359,3.92935 -3.929359,-3.92935 z"
     id="path20738"
     inkscape:connector-curvature="0" />
  <path
     style="fill:#fee3a3;stroke:none"
     d="m 122.65103,171.92992 3.92935,3.92935 -3.92935,-3.92935 z"
     id="path20740"
     inkscape:connector-curvature="0" />
  <g
     inkscape:groupmode="layer"
     id="layer2"
     inkscape:label="bulb2"
     style="display:inline"
     transform="translate(0,136)">
    <path
       sodipodi:type="arc"
       style="fill:#68656c;fill-opacity:1;stroke:none"
       id="path21285"
       sodipodi:cx="31.810577"
       sodipodi:cy="41.162365"
       sodipodi:rx="10.676528"
       sodipodi:ry="10.129013"
       d="m 42.487105,41.162365 c 0,5.594099 -4.780044,10.129013 -10.676528,10.129013 -5.896483,0 -10.676528,-4.534914 -10.676528,-10.129013 0,-5.594099 4.780045,-10.129013 10.676528,-10.129013 5.896484,0 10.676528,4.534914 10.676528,10.129013 z"
       transform="matrix(2.7585091,0,0,2.8821689,-37.298466,-119.04215)" />
  </g>
  <g
     inkscape:groupmode="layer"
     id="layer1"
     inkscape:label="bulb"
     style="display:inline"
     transform="translate(0,136)">
    <path
       sodipodi:type="arc"
       style="fill:#ffbb00;fill-opacity:1;stroke:none"
       id="path20774"
       sodipodi:cx="47.797993"
       sodipodi:cy="32.675892"
       sodipodi:rx="20.203276"
       sodipodi:ry="20.258026"
       d="m 68.001268,32.675892 c 0,11.188199 -9.045314,20.258026 -20.203275,20.258026 -11.157961,0 -20.203276,-9.069827 -20.203276,-20.258026 0,-11.188199 9.045315,-20.258026 20.203276,-20.258026 11.157961,0 20.203275,9.069827 20.203275,20.258026 z"
       transform="matrix(3.3488855,0,0,3.3488855,-56.728464,-150.37427)" />
  </g>
  <g
     inkscape:groupmode="layer"
     id="layer4"
     inkscape:label="blick"
     style="display:inline"
     transform="translate(0,136)">
    <path
       style="fill:#ffffff;fill-opacity:1;stroke:none;display:inline"
       d="m 58.507445,-64.091333 c 0.308767,-3.295361 0.969825,-4.653166 3.016241,-7.861088 2.634458,-3.517776 4.615491,-5.397094 7.510924,-8.217348 6.197414,-4.781876 7.13826,-5.405098 14.594897,-7.925169 5.001188,-1.131783 3.975662,-0.809274 7.234141,-1.009492 1.85453,0.321492 2.924707,0.924343 3.306684,1.735187 1.049789,1.462542 1.24045,3.039661 0.400248,4.828337 -2.808018,2.659229 -6.455654,2.874713 -10.913989,4.657934 -2.91156,1.118692 -5.807957,3.356019 -8.287477,5.377092 -2.945033,2.40621 -5.16011,5.148991 -6.226281,8.659742 -2.140759,4.099458 -0.777225,6.286167 -3.62966,8.011395 -1.6967,0.685967 -3.795007,0.07703 -5.861329,-2.544778 -1.151271,-2.833797 -1.056367,-2.17917 -1.144399,-5.711812 z"
       id="path21374"
       inkscape:connector-curvature="0"
       sodipodi:nodetypes="ccccccccccccc" />
  </g>
</svg>
